<mxfile host="app.diagrams.net" modified="2024-05-28T14:50:09.490Z" agent="Mozilla/5.0 (Windows NT 10.0; Win64; x64) AppleWebKit/537.36 (KHTML, like Gecko) Chrome/125.0.0.0 Safari/537.36" etag="aC2rVJnyX_LEJQ452los" version="24.3.0" type="device">
  <diagram name="페이지-1" id="CLmB6OIrarcrola9oYju">
    <mxGraphModel dx="1306" dy="1097" grid="1" gridSize="10" guides="1" tooltips="1" connect="1" arrows="1" fold="1" page="1" pageScale="1" pageWidth="827" pageHeight="1169" math="0" shadow="0">
      <root>
        <mxCell id="0" />
        <mxCell id="1" parent="0" />
        <mxCell id="Tt1ge6A5vVKbFw_rHFms-16" value="쓰레드 여러개" style="text;strokeColor=none;fillColor=none;html=1;fontSize=24;fontStyle=1;verticalAlign=middle;align=center;" vertex="1" parent="1">
          <mxGeometry x="430" y="110" width="180" height="90" as="geometry" />
        </mxCell>
        <mxCell id="Tt1ge6A5vVKbFw_rHFms-17" value="&lt;font style=&quot;font-size: 18px;&quot;&gt;Thread&lt;/font&gt;" style="text;strokeColor=none;fillColor=none;html=1;fontSize=24;fontStyle=1;verticalAlign=middle;align=center;" vertex="1" parent="1">
          <mxGeometry x="230" y="220" width="100" height="40" as="geometry" />
        </mxCell>
        <mxCell id="Tt1ge6A5vVKbFw_rHFms-18" value="&lt;font style=&quot;font-size: 18px;&quot;&gt;Thread&lt;/font&gt;" style="text;strokeColor=none;fillColor=none;html=1;fontSize=24;fontStyle=1;verticalAlign=middle;align=center;" vertex="1" parent="1">
          <mxGeometry x="340" y="220" width="100" height="40" as="geometry" />
        </mxCell>
        <mxCell id="Tt1ge6A5vVKbFw_rHFms-19" value="&lt;font style=&quot;font-size: 18px;&quot;&gt;Thread&lt;/font&gt;" style="text;strokeColor=none;fillColor=none;html=1;fontSize=24;fontStyle=1;verticalAlign=middle;align=center;" vertex="1" parent="1">
          <mxGeometry x="490" y="220" width="100" height="40" as="geometry" />
        </mxCell>
        <mxCell id="Tt1ge6A5vVKbFw_rHFms-20" value="&lt;font style=&quot;font-size: 18px;&quot;&gt;...&lt;/font&gt;" style="text;strokeColor=none;fillColor=none;html=1;fontSize=24;fontStyle=1;verticalAlign=middle;align=center;" vertex="1" parent="1">
          <mxGeometry x="420" y="220" width="100" height="40" as="geometry" />
        </mxCell>
        <mxCell id="Tt1ge6A5vVKbFw_rHFms-21" value="&lt;font style=&quot;font-size: 18px;&quot;&gt;Thread&lt;/font&gt;" style="text;strokeColor=none;fillColor=none;html=1;fontSize=24;fontStyle=1;verticalAlign=middle;align=center;" vertex="1" parent="1">
          <mxGeometry x="670" y="220" width="100" height="40" as="geometry" />
        </mxCell>
        <mxCell id="Tt1ge6A5vVKbFw_rHFms-22" value="&lt;font style=&quot;font-size: 18px;&quot;&gt;Thread&lt;/font&gt;" style="text;strokeColor=none;fillColor=none;html=1;fontSize=24;fontStyle=1;verticalAlign=middle;align=center;" vertex="1" parent="1">
          <mxGeometry x="780" y="220" width="100" height="40" as="geometry" />
        </mxCell>
        <mxCell id="Tt1ge6A5vVKbFw_rHFms-24" value="" style="endArrow=classic;html=1;rounded=0;" edge="1" parent="1">
          <mxGeometry width="50" height="50" relative="1" as="geometry">
            <mxPoint x="270" y="270" as="sourcePoint" />
            <mxPoint x="250" y="390" as="targetPoint" />
          </mxGeometry>
        </mxCell>
        <mxCell id="Tt1ge6A5vVKbFw_rHFms-25" value="" style="endArrow=classic;html=1;rounded=0;" edge="1" parent="1">
          <mxGeometry width="50" height="50" relative="1" as="geometry">
            <mxPoint x="390" y="270" as="sourcePoint" />
            <mxPoint x="420" y="410" as="targetPoint" />
          </mxGeometry>
        </mxCell>
        <mxCell id="Tt1ge6A5vVKbFw_rHFms-26" value="" style="endArrow=classic;html=1;rounded=0;" edge="1" parent="1">
          <mxGeometry width="50" height="50" relative="1" as="geometry">
            <mxPoint x="539.5" y="270" as="sourcePoint" />
            <mxPoint x="580" y="530" as="targetPoint" />
          </mxGeometry>
        </mxCell>
        <mxCell id="Tt1ge6A5vVKbFw_rHFms-27" value="⓵" style="text;strokeColor=none;fillColor=none;html=1;fontSize=24;fontStyle=1;verticalAlign=middle;align=center;" vertex="1" parent="1">
          <mxGeometry x="200" y="260" width="40" height="40" as="geometry" />
        </mxCell>
        <mxCell id="Tt1ge6A5vVKbFw_rHFms-28" value="⓶" style="text;strokeColor=none;fillColor=none;html=1;fontSize=24;fontStyle=1;verticalAlign=middle;align=center;" vertex="1" parent="1">
          <mxGeometry x="340" y="270" width="40" height="40" as="geometry" />
        </mxCell>
        <mxCell id="Tt1ge6A5vVKbFw_rHFms-29" value="⓾" style="text;strokeColor=none;fillColor=none;html=1;fontSize=24;fontStyle=1;verticalAlign=middle;align=center;" vertex="1" parent="1">
          <mxGeometry x="490" y="270" width="40" height="40" as="geometry" />
        </mxCell>
        <mxCell id="Tt1ge6A5vVKbFw_rHFms-34" value="&lt;font style=&quot;font-size: 18px;&quot;&gt;...&lt;/font&gt;" style="text;strokeColor=none;fillColor=none;html=1;fontSize=24;fontStyle=1;verticalAlign=middle;align=center;" vertex="1" parent="1">
          <mxGeometry x="420" y="565" width="100" height="40" as="geometry" />
        </mxCell>
        <mxCell id="Tt1ge6A5vVKbFw_rHFms-35" value="" style="group" vertex="1" connectable="0" parent="1">
          <mxGeometry x="160" y="410" width="170" height="310" as="geometry" />
        </mxCell>
        <mxCell id="Tt1ge6A5vVKbFw_rHFms-11" value="&lt;font style=&quot;font-size: 18px;&quot;&gt;&lt;b&gt;예약&lt;/b&gt;&lt;/font&gt;" style="rounded=1;whiteSpace=wrap;html=1;strokeWidth=2;fillWeight=4;hachureGap=8;hachureAngle=45;fillColor=#1ba1e2;sketch=1;" vertex="1" parent="Tt1ge6A5vVKbFw_rHFms-35">
          <mxGeometry x="25" width="120" height="60" as="geometry" />
        </mxCell>
        <mxCell id="Tt1ge6A5vVKbFw_rHFms-30" value="" style="group" vertex="1" connectable="0" parent="Tt1ge6A5vVKbFw_rHFms-35">
          <mxGeometry y="80" width="170" height="230" as="geometry" />
        </mxCell>
        <mxCell id="Tt1ge6A5vVKbFw_rHFms-31" value="좌석 검증&lt;div&gt;&lt;b&gt;READ&lt;/b&gt;&lt;/div&gt;&lt;div&gt;&lt;b&gt;if Seat.status == AVAILABLE&lt;/b&gt;&lt;/div&gt;" style="rounded=0;whiteSpace=wrap;html=1;" vertex="1" parent="Tt1ge6A5vVKbFw_rHFms-30">
          <mxGeometry width="170" height="60" as="geometry" />
        </mxCell>
        <mxCell id="Tt1ge6A5vVKbFw_rHFms-32" value="좌석 예약에 필요한&amp;nbsp; &amp;nbsp; &amp;nbsp;&lt;div&gt;나머지 단계들&lt;div&gt;&lt;b&gt;Update&lt;/b&gt;&lt;/div&gt;&lt;div&gt;&lt;b&gt;Seat.status==RESERVED&lt;/b&gt;&lt;/div&gt;&lt;/div&gt;" style="rounded=0;whiteSpace=wrap;html=1;" vertex="1" parent="Tt1ge6A5vVKbFw_rHFms-30">
          <mxGeometry y="70" width="170" height="160" as="geometry" />
        </mxCell>
        <mxCell id="Tt1ge6A5vVKbFw_rHFms-36" value="" style="endArrow=classic;html=1;rounded=0;" edge="1" parent="1">
          <mxGeometry width="50" height="50" relative="1" as="geometry">
            <mxPoint x="80" y="380" as="sourcePoint" />
            <mxPoint x="80" y="900" as="targetPoint" />
          </mxGeometry>
        </mxCell>
        <mxCell id="Tt1ge6A5vVKbFw_rHFms-38" value="time" style="text;strokeColor=none;fillColor=none;html=1;fontSize=24;fontStyle=1;verticalAlign=middle;align=center;" vertex="1" parent="1">
          <mxGeometry x="30" y="320" width="100" height="40" as="geometry" />
        </mxCell>
        <mxCell id="Tt1ge6A5vVKbFw_rHFms-40" value="&lt;font color=&quot;#ff6666&quot; style=&quot;font-size: 14px;&quot;&gt;status=RESERVED 업데이트시점에 조회 시작&lt;/font&gt;" style="text;strokeColor=none;fillColor=none;html=1;fontSize=24;fontStyle=1;verticalAlign=middle;align=center;" vertex="1" parent="1">
          <mxGeometry x="140" y="730" width="100" height="40" as="geometry" />
        </mxCell>
        <mxCell id="Tt1ge6A5vVKbFw_rHFms-43" value="" style="group" vertex="1" connectable="0" parent="1">
          <mxGeometry x="350" y="440" width="170" height="310" as="geometry" />
        </mxCell>
        <mxCell id="Tt1ge6A5vVKbFw_rHFms-44" value="&lt;font style=&quot;font-size: 18px;&quot;&gt;&lt;b&gt;예약&lt;/b&gt;&lt;/font&gt;" style="rounded=1;whiteSpace=wrap;html=1;strokeWidth=2;fillWeight=4;hachureGap=8;hachureAngle=45;fillColor=#1ba1e2;sketch=1;" vertex="1" parent="Tt1ge6A5vVKbFw_rHFms-43">
          <mxGeometry x="25" width="120" height="60" as="geometry" />
        </mxCell>
        <mxCell id="Tt1ge6A5vVKbFw_rHFms-45" value="" style="group" vertex="1" connectable="0" parent="Tt1ge6A5vVKbFw_rHFms-43">
          <mxGeometry y="80" width="170" height="230" as="geometry" />
        </mxCell>
        <mxCell id="Tt1ge6A5vVKbFw_rHFms-46" value="좌석 검증&lt;div&gt;&lt;b&gt;READ&lt;/b&gt;&lt;/div&gt;&lt;div&gt;&lt;b&gt;if Seat.status == AVAILABLE&lt;/b&gt;&lt;/div&gt;" style="rounded=0;whiteSpace=wrap;html=1;" vertex="1" parent="Tt1ge6A5vVKbFw_rHFms-45">
          <mxGeometry width="170" height="60" as="geometry" />
        </mxCell>
        <mxCell id="Tt1ge6A5vVKbFw_rHFms-47" value="좌석 예약에 필요한&amp;nbsp; &amp;nbsp; &amp;nbsp;&lt;div&gt;나머지 단계들&lt;div&gt;&lt;b&gt;Update&lt;/b&gt;&lt;/div&gt;&lt;div&gt;&lt;b&gt;Seat.status==RESERVED&lt;/b&gt;&lt;/div&gt;&lt;/div&gt;" style="rounded=0;whiteSpace=wrap;html=1;" vertex="1" parent="Tt1ge6A5vVKbFw_rHFms-45">
          <mxGeometry y="70" width="170" height="160" as="geometry" />
        </mxCell>
        <mxCell id="Tt1ge6A5vVKbFw_rHFms-48" value="" style="group" vertex="1" connectable="0" parent="1">
          <mxGeometry x="550" y="565" width="170" height="310" as="geometry" />
        </mxCell>
        <mxCell id="Tt1ge6A5vVKbFw_rHFms-49" value="&lt;font style=&quot;font-size: 18px;&quot;&gt;&lt;b&gt;예약&lt;/b&gt;&lt;/font&gt;" style="rounded=1;whiteSpace=wrap;html=1;strokeWidth=2;fillWeight=4;hachureGap=8;hachureAngle=45;fillColor=#1ba1e2;sketch=1;" vertex="1" parent="Tt1ge6A5vVKbFw_rHFms-48">
          <mxGeometry x="25" width="120" height="60" as="geometry" />
        </mxCell>
        <mxCell id="Tt1ge6A5vVKbFw_rHFms-50" value="" style="group" vertex="1" connectable="0" parent="Tt1ge6A5vVKbFw_rHFms-48">
          <mxGeometry y="80" width="170" height="230" as="geometry" />
        </mxCell>
        <mxCell id="Tt1ge6A5vVKbFw_rHFms-51" value="좌석 검증&lt;div&gt;&lt;b&gt;READ&lt;/b&gt;&lt;/div&gt;&lt;div&gt;&lt;b&gt;if Seat.status == AVAILABLE&lt;/b&gt;&lt;/div&gt;" style="rounded=0;whiteSpace=wrap;html=1;" vertex="1" parent="Tt1ge6A5vVKbFw_rHFms-50">
          <mxGeometry width="170" height="60" as="geometry" />
        </mxCell>
        <mxCell id="Tt1ge6A5vVKbFw_rHFms-52" value="좌석 예약에 필요한&amp;nbsp; &amp;nbsp; &amp;nbsp;&lt;div&gt;나머지 단계들&lt;div&gt;&lt;b&gt;Update&lt;/b&gt;&lt;/div&gt;&lt;div&gt;&lt;b&gt;Seat.status==RESERVED&lt;/b&gt;&lt;/div&gt;&lt;/div&gt;" style="rounded=0;whiteSpace=wrap;html=1;" vertex="1" parent="Tt1ge6A5vVKbFw_rHFms-50">
          <mxGeometry y="70" width="170" height="160" as="geometry" />
        </mxCell>
        <mxCell id="Tt1ge6A5vVKbFw_rHFms-39" value="" style="endArrow=none;dashed=1;html=1;rounded=0;strokeColor=#FF0000;" edge="1" parent="1">
          <mxGeometry width="50" height="50" relative="1" as="geometry">
            <mxPoint x="40" y="730" as="sourcePoint" />
            <mxPoint x="1170" y="730" as="targetPoint" />
          </mxGeometry>
        </mxCell>
        <mxCell id="Tt1ge6A5vVKbFw_rHFms-53" value="" style="group" vertex="1" connectable="0" parent="1">
          <mxGeometry x="740" y="660" width="170" height="310" as="geometry" />
        </mxCell>
        <mxCell id="Tt1ge6A5vVKbFw_rHFms-54" value="&lt;font style=&quot;font-size: 18px;&quot;&gt;&lt;b&gt;예약&lt;/b&gt;&lt;/font&gt;" style="rounded=1;whiteSpace=wrap;html=1;strokeWidth=2;fillWeight=4;hachureGap=8;hachureAngle=45;fillColor=#1ba1e2;sketch=1;" vertex="1" parent="Tt1ge6A5vVKbFw_rHFms-53">
          <mxGeometry x="25" width="120" height="60" as="geometry" />
        </mxCell>
        <mxCell id="Tt1ge6A5vVKbFw_rHFms-55" value="" style="group" vertex="1" connectable="0" parent="Tt1ge6A5vVKbFw_rHFms-53">
          <mxGeometry y="80" width="170" height="230" as="geometry" />
        </mxCell>
        <mxCell id="Tt1ge6A5vVKbFw_rHFms-56" value="좌석 검증&lt;div&gt;&lt;b&gt;READ&lt;/b&gt;&lt;/div&gt;&lt;div&gt;&lt;b&gt;if Seat.status == AVAILABLE&lt;/b&gt;&lt;/div&gt;" style="rounded=0;whiteSpace=wrap;html=1;" vertex="1" parent="Tt1ge6A5vVKbFw_rHFms-55">
          <mxGeometry width="170" height="60" as="geometry" />
        </mxCell>
        <mxCell id="Tt1ge6A5vVKbFw_rHFms-57" value="좌석 예약에 필요한&amp;nbsp; &amp;nbsp; &amp;nbsp;&lt;div&gt;나머지 단계들&lt;div&gt;&lt;b&gt;Update&lt;/b&gt;&lt;/div&gt;&lt;div&gt;&lt;b&gt;Seat.status==RESERVED&lt;/b&gt;&lt;/div&gt;&lt;/div&gt;" style="rounded=0;whiteSpace=wrap;html=1;" vertex="1" parent="Tt1ge6A5vVKbFw_rHFms-55">
          <mxGeometry y="70" width="170" height="160" as="geometry" />
        </mxCell>
        <mxCell id="Tt1ge6A5vVKbFw_rHFms-58" value="" style="group" vertex="1" connectable="0" parent="1">
          <mxGeometry x="980" y="730" width="170" height="310" as="geometry" />
        </mxCell>
        <mxCell id="Tt1ge6A5vVKbFw_rHFms-59" value="&lt;font style=&quot;font-size: 18px;&quot;&gt;&lt;b&gt;예약&lt;/b&gt;&lt;/font&gt;" style="rounded=1;whiteSpace=wrap;html=1;strokeWidth=2;fillWeight=4;hachureGap=8;hachureAngle=45;fillColor=#1ba1e2;sketch=1;" vertex="1" parent="Tt1ge6A5vVKbFw_rHFms-58">
          <mxGeometry x="25" width="120" height="60" as="geometry" />
        </mxCell>
        <mxCell id="Tt1ge6A5vVKbFw_rHFms-60" value="" style="group" vertex="1" connectable="0" parent="Tt1ge6A5vVKbFw_rHFms-58">
          <mxGeometry y="80" width="170" height="230" as="geometry" />
        </mxCell>
        <mxCell id="Tt1ge6A5vVKbFw_rHFms-61" value="좌석 검증&lt;div&gt;&lt;b&gt;READ&lt;/b&gt;&lt;/div&gt;&lt;div&gt;&lt;b&gt;if Seat.status == AVAILABLE&lt;/b&gt;&lt;/div&gt;" style="rounded=0;whiteSpace=wrap;html=1;" vertex="1" parent="Tt1ge6A5vVKbFw_rHFms-60">
          <mxGeometry width="170" height="60" as="geometry" />
        </mxCell>
        <mxCell id="Tt1ge6A5vVKbFw_rHFms-62" value="좌석 예약에 필요한&amp;nbsp; &amp;nbsp; &amp;nbsp;&lt;div&gt;나머지 단계들&lt;div&gt;&lt;b&gt;Update&lt;/b&gt;&lt;/div&gt;&lt;div&gt;&lt;b&gt;Seat.status==RESERVED&lt;/b&gt;&lt;/div&gt;&lt;/div&gt;" style="rounded=0;whiteSpace=wrap;html=1;" vertex="1" parent="Tt1ge6A5vVKbFw_rHFms-60">
          <mxGeometry y="70" width="170" height="160" as="geometry" />
        </mxCell>
        <mxCell id="Tt1ge6A5vVKbFw_rHFms-63" value="&lt;font style=&quot;font-size: 18px;&quot;&gt;...&lt;/font&gt;" style="text;strokeColor=none;fillColor=none;html=1;fontSize=24;fontStyle=1;verticalAlign=middle;align=center;" vertex="1" parent="1">
          <mxGeometry x="440" y="340" width="100" height="40" as="geometry" />
        </mxCell>
        <mxCell id="Tt1ge6A5vVKbFw_rHFms-64" value="&lt;font style=&quot;font-size: 18px;&quot;&gt;...&lt;/font&gt;" style="text;strokeColor=none;fillColor=none;html=1;fontSize=24;fontStyle=1;verticalAlign=middle;align=center;" vertex="1" parent="1">
          <mxGeometry x="490" y="600" width="100" height="30" as="geometry" />
        </mxCell>
        <mxCell id="Tt1ge6A5vVKbFw_rHFms-65" value="&lt;font style=&quot;font-size: 18px;&quot;&gt;...&lt;/font&gt;" style="text;strokeColor=none;fillColor=none;html=1;fontSize=24;fontStyle=1;verticalAlign=middle;align=center;" vertex="1" parent="1">
          <mxGeometry x="900" y="830" width="100" height="40" as="geometry" />
        </mxCell>
        <mxCell id="Tt1ge6A5vVKbFw_rHFms-66" value="" style="endArrow=classic;html=1;rounded=0;" edge="1" parent="1">
          <mxGeometry width="50" height="50" relative="1" as="geometry">
            <mxPoint x="739.5" y="270" as="sourcePoint" />
            <mxPoint x="810" y="640" as="targetPoint" />
          </mxGeometry>
        </mxCell>
        <mxCell id="Tt1ge6A5vVKbFw_rHFms-67" value="" style="endArrow=classic;html=1;rounded=0;" edge="1" parent="1">
          <mxGeometry width="50" height="50" relative="1" as="geometry">
            <mxPoint x="839.5" y="260" as="sourcePoint" />
            <mxPoint x="1050" y="710" as="targetPoint" />
          </mxGeometry>
        </mxCell>
      </root>
    </mxGraphModel>
  </diagram>
</mxfile>
